<svg width="194" height="43" viewBox="0 0 194 43" fill="none" xmlns="http://www.w3.org/2000/svg">
<mask id="mask0_35_859" style="mask-type:luminance" maskUnits="userSpaceOnUse" x="0" y="0" width="46" height="40">
<path d="M45.5 0H0.5V40H45.5V0Z" fill="white"/>
</mask>
<g mask="url(#mask0_35_859)">
<path d="M11.7497 40L0.5 20L11.7497 0H34.2497L34.0104 0.427508L33.9011 0.621491C33.9008 0.624902 33.8994 0.628096 33.8969 0.630452C33.8945 0.632624 33.8928 0.635608 33.8923 0.638892C33.88 0.65207 33.863 0.686329 33.8338 0.729554L22.9979 20L12.404 38.8219C12.3918 38.8501 12.3778 38.8774 12.3619 38.9036V38.9125C12.3619 38.9167 12.3619 38.9167 12.3578 38.9167C12.3561 38.923 12.3533 38.9289 12.3496 38.9341L11.9793 39.5857L11.7497 40Z" fill="url(#paint0_linear_35_859)"/>
<path d="M34.2501 40.0001L34.0734 39.6838L32.4629 36.8215C32.4624 36.8169 32.461 36.8124 32.4588 36.8083H32.4547L23.2401 20.4303L23.0085 20.0117H23.0044C23.0022 20.0076 23.0008 20.0031 23.0003 19.9986L33.8361 0.728083C33.8654 0.684859 33.8824 0.650595 33.8947 0.637416C33.8952 0.634138 33.8968 0.631159 33.8993 0.628988C33.9017 0.626631 33.9032 0.623426 33.9034 0.620021L34.0128 0.426036L34.2521 -0.00146484L44.577 18.3539C44.5811 18.3581 44.5811 18.3623 44.5857 18.3671L45.5024 20.0012L40.6827 28.5703C40.6827 28.5745 40.6786 28.5745 40.6786 28.5787C40.6786 28.5829 40.6786 28.5835 40.6745 28.5835L34.2501 40.0001Z" fill="url(#paint1_linear_35_859)"/>
<path d="M34.2498 40H11.7498L11.9815 39.5857L12.3517 38.9341C12.355 38.9301 12.3577 38.9256 12.3599 38.921C12.3599 38.9167 12.364 38.9167 12.364 38.9125V38.9036L23.0001 20C23.0007 20.0046 23.0021 20.0091 23.0042 20.0132H23.0083L23.2399 20.4317L32.4545 36.8098H32.4586C32.4608 36.8138 32.4622 36.8183 32.4627 36.8229L34.0732 39.6853L34.2498 40Z" fill="url(#paint2_linear_35_859)"/>
<g style="mix-blend-mode:screen" opacity="0.25">
<path d="M1.95537 19.9997L12.4779 1.29492H32.061L1.95537 19.9997Z" fill="white"/>
</g>
<g style="mix-blend-mode:screen" opacity="0.5">
<path d="M22.9998 19.9999L12.4059 38.8217C12.5194 38.5972 12.7926 38.049 13.205 37.2461C13.7642 36.1797 14.5402 34.6426 15.5098 32.8256C16.4727 30.9996 17.6122 28.8842 18.8478 26.6223C19.4641 25.4953 20.1096 24.3298 20.7613 23.1432C21.4217 21.9645 22.0903 20.7648 22.759 19.5645C23.4363 18.3689 24.1132 17.1729 24.7818 15.9989C25.4505 14.825 26.1171 13.6722 26.7585 12.5541C28.0454 10.3265 29.2651 8.25429 30.3209 6.48417C31.3768 4.71406 32.2806 3.25548 32.9031 2.2281C33.374 1.45953 33.698 0.941361 33.8326 0.72998L22.9998 19.9999Z" fill="white"/>
</g>
<g style="mix-blend-mode:screen" opacity="0.5">
<path d="M12.3597 38.9158C12.3597 38.9118 12.3657 38.9073 12.3657 38.9033V38.9118C12.3657 38.9158 12.3657 38.9158 12.3597 38.9158Z" fill="white"/>
</g>
<g style="mix-blend-mode:multiply" opacity="0.25">
<path d="M34.2497 40H11.7497L0.5 20C1.5009 21.6273 2.47254 23.2766 3.45238 24.9171C4.44096 26.5512 5.39975 28.2064 6.37086 29.8553L9.24672 34.8156L11.9803 39.5857L17.3762 39.573L22.999 39.5815L28.6218 39.6205L34.0721 39.6853H34.0767L35.6368 37.0127L37.3023 34.1894C38.4249 32.3202 39.5311 30.4383 40.6711 28.5823L34.2497 40Z" fill="white"/>
</g>
<g style="mix-blend-mode:screen" opacity="0.5">
<path d="M44.5745 18.3555C44.1036 17.6175 43.6409 16.8795 43.188 16.1326L41.8127 13.8875C40.9041 12.381 40.0069 10.8716 39.1212 9.35943C38.2355 7.84724 37.3565 6.32772 36.4841 4.80077C35.6624 3.34166 34.8228 1.89099 34.0114 0.425555C32.594 0.416594 31.1725 0.416595 29.7551 0.394982C28.2581 0.378114 26.7606 0.356497 25.2595 0.321706L23.0138 0.265829L20.7676 0.196776C19.2665 0.131939 17.769 0.0887141 16.272 -0.00195312H34.2507L44.5745 18.3555Z" fill="white"/>
</g>
<g style="mix-blend-mode:screen" opacity="0.5">
<path d="M23.2401 20.4317L32.4547 36.8098C32.3746 36.6975 31.689 35.7481 30.7764 34.319C30.2845 33.5594 29.7293 32.6617 29.149 31.6902C28.863 31.2026 28.5559 30.7061 28.2616 30.1879C27.9673 29.6697 27.6685 29.1516 27.3655 28.6255C27.0753 28.0984 26.7852 27.5712 26.4991 27.0493C26.2131 26.5274 25.944 26.0093 25.6749 25.5128C25.1454 24.5112 24.6658 23.5703 24.2703 22.7501C23.5216 21.2261 23.0594 20.1423 23.0044 20.0132C23.0022 20.0091 23.0008 20.0046 23.0003 20C23.0037 20.004 23.0064 20.0084 23.0085 20.0132L23.2401 20.4317Z" fill="white"/>
</g>
<g style="mix-blend-mode:screen" opacity="0.4">
<path d="M32.4641 36.8226C32.4601 36.8188 32.4567 36.8146 32.4542 36.8101H32.4592C32.4618 36.8139 32.4635 36.8182 32.4641 36.8226Z" fill="white"/>
</g>
<g style="mix-blend-mode:screen" opacity="0.5">
<path d="M27.0652 1.29536C25.8497 1.35176 24.6341 1.37812 23.4191 1.41871C22.204 1.4593 20.9874 1.46773 19.7729 1.49356C18.5583 1.51939 17.3417 1.53995 16.1267 1.54205L12.4805 1.56472L12.708 1.42977C12.3336 2.10029 11.968 2.77555 11.5859 3.44079L10.4453 5.44073L8.16108 9.43852L5.83112 13.4094L4.6469 15.383C4.2525 16.0412 3.85348 16.6966 3.44983 17.3492C3.79699 16.6636 4.15048 15.9812 4.5103 15.3018L5.58361 13.2624L7.76925 9.20605L10.0006 5.17717L11.1176 3.16299C11.4878 2.4909 11.875 1.82828 12.2535 1.15988L12.33 1.02441H12.4805L16.1267 1.04708C17.3423 1.04708 18.5578 1.06974 19.7729 1.09504C20.9879 1.12034 22.2045 1.13405 23.4191 1.17042C24.6336 1.2068 25.8471 1.23895 27.0652 1.29536Z" fill="white"/>
</g>
<g style="mix-blend-mode:multiply" opacity="0.16">
<path d="M34.0734 39.6852L23.0003 19.9999L33.8361 0.729492C33.8361 0.729492 23.1729 20.993 34.0734 39.6852Z" fill="white"/>
</g>
</g>
<path d="M66.8477 30V28.9688L68.2305 28.8516C68.293 28.8516 68.3516 28.8125 68.4062 28.7344C68.4609 28.6484 68.4883 28.5703 68.4883 28.5C68.4883 28.4688 68.4844 28.4492 68.4766 28.4414L66.8242 24.0469H61.2812L59.6875 28.3711C59.6797 28.3867 59.6758 28.4102 59.6758 28.4414C59.6758 28.5352 59.7148 28.6289 59.793 28.7227C59.8789 28.8086 59.957 28.8516 60.0273 28.8516L61.4453 28.9688V30H56.6172V28.9688L58.0117 28.6758L63.6016 13.5117H65.4062L70.9727 28.3242C71.0273 28.4883 71.0781 28.5977 71.125 28.6523C71.1797 28.707 71.2969 28.75 71.4766 28.7812L72.5547 28.9688V30H66.8477ZM64.0352 16.6055L61.7031 22.8984H66.3906L64.0352 16.6055ZM85.1758 23.6602C85.1758 24.5664 85.043 25.4062 84.7773 26.1797C84.5117 26.9453 84.0977 27.6133 83.5352 28.1836C82.9805 28.7539 82.2656 29.1992 81.3906 29.5195C80.5234 29.8398 79.4883 30 78.2852 30H74.8281V14.0391H73.0117V13.2422L76.1055 12.3164H77.0664V19.0312C77.207 18.9688 77.3906 18.8867 77.6172 18.7852C77.8438 18.6836 78.1016 18.5859 78.3906 18.4922C78.6875 18.3984 79.0039 18.3164 79.3398 18.2461C79.6758 18.1758 80.0195 18.1406 80.3711 18.1406C81.1602 18.1406 81.8516 18.2891 82.4453 18.5859C83.0469 18.8828 83.5508 19.2852 83.957 19.793C84.3633 20.3008 84.668 20.8906 84.8711 21.5625C85.0742 22.2266 85.1758 22.9258 85.1758 23.6602ZM82.7266 24.1406C82.7266 22.6328 82.4023 21.4922 81.7539 20.7188C81.1133 19.9453 80.2148 19.5586 79.0586 19.5586C78.9258 19.5586 78.7695 19.5703 78.5898 19.5938C78.4102 19.6172 78.2266 19.6484 78.0391 19.6875C77.8594 19.7266 77.6797 19.7695 77.5 19.8164C77.3281 19.8633 77.1836 19.9062 77.0664 19.9453V28.8516C77.1992 28.8594 77.3359 28.8633 77.4766 28.8633C77.5938 28.8711 77.7188 28.875 77.8516 28.875H78.2383C78.9492 28.875 79.582 28.793 80.1367 28.6289C80.6914 28.4648 81.1602 28.1953 81.543 27.8203C81.9258 27.4453 82.2188 26.957 82.4219 26.3555C82.625 25.7539 82.7266 25.0156 82.7266 24.1406ZM98.5117 23.6602C98.5117 24.5664 98.3789 25.4062 98.1133 26.1797C97.8477 26.9453 97.4336 27.6133 96.8711 28.1836C96.3164 28.7539 95.6016 29.1992 94.7266 29.5195C93.8594 29.8398 92.8242 30 91.6211 30H88.1641V14.0391H86.3477V13.2422L89.4414 12.3164H90.4023V19.0312C90.543 18.9688 90.7266 18.8867 90.9531 18.7852C91.1797 18.6836 91.4375 18.5859 91.7266 18.4922C92.0234 18.3984 92.3398 18.3164 92.6758 18.2461C93.0117 18.1758 93.3555 18.1406 93.707 18.1406C94.4961 18.1406 95.1875 18.2891 95.7812 18.5859C96.3828 18.8828 96.8867 19.2852 97.293 19.793C97.6992 20.3008 98.0039 20.8906 98.207 21.5625C98.4102 22.2266 98.5117 22.9258 98.5117 23.6602ZM96.0625 24.1406C96.0625 22.6328 95.7383 21.4922 95.0898 20.7188C94.4492 19.9453 93.5508 19.5586 92.3945 19.5586C92.2617 19.5586 92.1055 19.5703 91.9258 19.5938C91.7461 19.6172 91.5625 19.6484 91.375 19.6875C91.1953 19.7266 91.0156 19.7695 90.8359 19.8164C90.6641 19.8633 90.5195 19.9062 90.4023 19.9453V28.8516C90.5352 28.8594 90.6719 28.8633 90.8125 28.8633C90.9297 28.8711 91.0547 28.875 91.1875 28.875H91.5742C92.2852 28.875 92.918 28.793 93.4727 28.6289C94.0273 28.4648 94.4961 28.1953 94.8789 27.8203C95.2617 27.4453 95.5547 26.957 95.7578 26.3555C95.9609 25.7539 96.0625 25.0156 96.0625 24.1406ZM111.578 24.2344C111.578 25.0859 111.441 25.8828 111.168 26.625C110.902 27.3594 110.52 28 110.02 28.5469C109.527 29.0859 108.926 29.5117 108.215 29.8242C107.512 30.1367 106.723 30.293 105.848 30.293C104.973 30.293 104.184 30.1406 103.48 29.8359C102.777 29.5234 102.18 29.0977 101.688 28.5586C101.195 28.0195 100.816 27.3828 100.551 26.6484C100.293 25.9062 100.164 25.1016 100.164 24.2344C100.164 23.3828 100.297 22.5859 100.562 21.8438C100.828 21.1016 101.211 20.457 101.711 19.9102C102.211 19.3555 102.812 18.9219 103.516 18.6094C104.227 18.2969 105.027 18.1406 105.918 18.1406C106.809 18.1406 107.605 18.3008 108.309 18.6211C109.012 18.9414 109.605 19.3789 110.09 19.9336C110.574 20.4805 110.941 21.125 111.191 21.8672C111.449 22.6016 111.578 23.3906 111.578 24.2344ZM109.082 24.2109C109.082 23.5547 109.016 22.9258 108.883 22.3242C108.758 21.7227 108.562 21.1914 108.297 20.7305C108.031 20.2695 107.699 19.9023 107.301 19.6289C106.902 19.3555 106.434 19.2188 105.895 19.2188C105.34 19.2188 104.859 19.3555 104.453 19.6289C104.047 19.9023 103.711 20.2695 103.445 20.7305C103.188 21.1914 102.996 21.7227 102.871 22.3242C102.746 22.9258 102.684 23.5547 102.684 24.2109C102.684 24.8594 102.746 25.4844 102.871 26.0859C103.004 26.6875 103.203 27.2188 103.469 27.6797C103.734 28.1406 104.066 28.5117 104.465 28.793C104.863 29.0664 105.332 29.2031 105.871 29.2031C106.418 29.2031 106.895 29.0664 107.301 28.793C107.707 28.5195 108.039 28.1523 108.297 27.6914C108.562 27.2305 108.758 26.6992 108.883 26.0977C109.016 25.4961 109.082 24.8672 109.082 24.2109ZM120.391 29.4961C120.094 29.6445 119.77 29.7773 119.418 29.8945C119.121 29.9961 118.777 30.0859 118.387 30.1641C117.996 30.25 117.586 30.293 117.156 30.293C116.25 30.293 115.594 30.082 115.188 29.6602C114.781 29.2383 114.578 28.5508 114.578 27.5977V19.6289H113.043V18.8438L114.684 18.0703L115.762 15.5273H116.816V18.4336H120.203V19.6289H116.816V26.332C116.816 26.8086 116.855 27.2148 116.934 27.5508C117.02 27.8789 117.141 28.1484 117.297 28.3594C117.461 28.5625 117.66 28.7109 117.895 28.8047C118.137 28.8984 118.418 28.9453 118.738 28.9453C118.973 28.9453 119.188 28.9258 119.383 28.8867C119.586 28.8477 119.762 28.8008 119.91 28.7461C120.082 28.6836 120.242 28.6133 120.391 28.5352V29.4961ZM128.547 29.4961C128.25 29.6445 127.926 29.7773 127.574 29.8945C127.277 29.9961 126.934 30.0859 126.543 30.1641C126.152 30.25 125.742 30.293 125.312 30.293C124.406 30.293 123.75 30.082 123.344 29.6602C122.938 29.2383 122.734 28.5508 122.734 27.5977V19.6289H121.199V18.8438L122.84 18.0703L123.918 15.5273H124.973V18.4336H128.359V19.6289H124.973V26.332C124.973 26.8086 125.012 27.2148 125.09 27.5508C125.176 27.8789 125.297 28.1484 125.453 28.3594C125.617 28.5625 125.816 28.7109 126.051 28.8047C126.293 28.8984 126.574 28.9453 126.895 28.9453C127.129 28.9453 127.344 28.9258 127.539 28.8867C127.742 28.8477 127.918 28.8008 128.066 28.7461C128.238 28.6836 128.398 28.6133 128.547 28.5352V29.4961ZM140.16 30V28.9688L141.555 28.875C141.727 28.8594 141.852 28.7969 141.93 28.6875C142.016 28.5781 142.059 28.4648 142.059 28.3477V15.5508C142.059 15.4336 142.016 15.3203 141.93 15.2109C141.852 15.1016 141.727 15.0391 141.555 15.0234L140.16 14.9297V13.8984H146.289V14.9297L145.012 15.0234C144.84 15.0391 144.707 15.1016 144.613 15.2109C144.527 15.3203 144.484 15.4336 144.484 15.5508V28.8281H149.523C149.633 28.8281 149.742 28.7891 149.852 28.7109C149.969 28.625 150.035 28.5273 150.051 28.418L150.438 25.5352H151.832V30H140.16ZM152.91 30V28.9688L154.305 28.875C154.477 28.8594 154.602 28.7969 154.68 28.6875C154.766 28.5781 154.809 28.4648 154.809 28.3477V15.5508C154.809 15.4336 154.766 15.3203 154.68 15.2109C154.602 15.1016 154.477 15.0391 154.305 15.0234L152.91 14.9297V13.8984H159.039V14.9297L157.762 15.0234C157.59 15.0391 157.457 15.1016 157.363 15.2109C157.277 15.3203 157.234 15.4336 157.234 15.5508V28.8281H162.273C162.383 28.8281 162.492 28.7891 162.602 28.7109C162.719 28.625 162.785 28.5273 162.801 28.418L163.188 25.5352H164.582V30H152.91ZM179.125 29.4492C179.094 29.4648 178.941 29.5234 178.668 29.625C178.395 29.7188 178.039 29.8242 177.602 29.9414C177.164 30.0508 176.66 30.1523 176.09 30.2461C175.527 30.3398 174.941 30.3867 174.332 30.3867C173.434 30.3867 172.602 30.2773 171.836 30.0586C171.078 29.8477 170.387 29.5508 169.762 29.168C169.145 28.7852 168.598 28.3281 168.121 27.7969C167.652 27.2656 167.254 26.6875 166.926 26.0625C166.605 25.4375 166.363 24.7734 166.199 24.0703C166.035 23.3672 165.953 22.6484 165.953 21.9141C165.953 20.6719 166.156 19.5352 166.562 18.5039C166.969 17.4727 167.539 16.5898 168.273 15.8555C169.008 15.1133 169.891 14.5391 170.922 14.1328C171.953 13.7188 173.098 13.5117 174.355 13.5117C174.746 13.5117 175.121 13.5352 175.48 13.582C175.848 13.6211 176.219 13.6797 176.594 13.7578C176.969 13.8359 177.363 13.9336 177.777 14.0508C178.191 14.168 178.641 14.3008 179.125 14.4492V18.2109H177.684L177.332 16.0312C177.301 15.8984 177.242 15.7852 177.156 15.6914C177.07 15.5898 176.992 15.5195 176.922 15.4805L176.828 15.4336C176.727 15.3867 176.598 15.332 176.441 15.2695C176.285 15.1992 176.105 15.1367 175.902 15.082C175.707 15.0195 175.488 14.9688 175.246 14.9297C175.004 14.8828 174.746 14.8594 174.473 14.8594C173.652 14.8594 172.891 15.0117 172.188 15.3164C171.484 15.6211 170.875 16.0703 170.359 16.6641C169.844 17.2578 169.438 17.9961 169.141 18.8789C168.852 19.7539 168.707 20.7656 168.707 21.9141C168.707 23.0312 168.844 24.0312 169.117 24.9141C169.398 25.7969 169.801 26.5469 170.324 27.1641C170.848 27.7812 171.484 28.2539 172.234 28.582C172.984 28.9023 173.836 29.0625 174.789 29.0625C175.07 29.0625 175.324 29.043 175.551 29.0039C175.785 28.9648 175.988 28.9219 176.16 28.875C176.332 28.8203 176.465 28.7734 176.559 28.7344C176.652 28.6875 176.707 28.6602 176.723 28.6523C176.848 28.6055 176.949 28.5391 177.027 28.4531C177.105 28.3672 177.156 28.2734 177.18 28.1719L177.73 25.5586H179.125V29.4492Z" fill="white"/>
<defs>
<linearGradient id="paint0_linear_35_859" x1="-384.888" y1="64.9598" x2="-352.425" y2="79.1858" gradientUnits="userSpaceOnUse">
<stop stop-color="#FC7300"/>
<stop offset="1" stop-color="#F8007A"/>
</linearGradient>
<linearGradient id="paint1_linear_35_859" x1="-364.913" y1="43.2802" x2="-364.913" y2="64.4412" gradientUnits="userSpaceOnUse">
<stop stop-color="#C33764"/>
<stop offset="1" stop-color="#1D2671"/>
</linearGradient>
<linearGradient id="paint2_linear_35_859" x1="-364.495" y1="65.7399" x2="-344.83" y2="65.7399" gradientUnits="userSpaceOnUse">
<stop stop-color="#08ADF8"/>
<stop offset="1" stop-color="#4700FC"/>
</linearGradient>
</defs>
</svg>
